<svg xmlns="http://www.w3.org/2000/svg" viewBox="0 0 640 131.91"><path d="M440.3,235.53v30.69a48.8,48.8,0,0,1-33,11.4A36.65,36.65,0,0,1,381,267.47q-11.06-10.82-11-27.68a36.75,36.75,0,0,1,10.42-26.55q10.62-10.87,27.34-10.88a41.37,41.37,0,0,1,19.73,4.56,27.77,27.77,0,0,1,5.88,4.15,29,29,0,0,1,3.82,3.93L426,226.62a15,15,0,0,0-2.07-2.14,38.09,38.09,0,0,0-3.61-2.7,23,23,0,0,0-11.76-3.11q-9.42,0-15,6a20.58,20.58,0,0,0-5.38,14.71q0,9.85,5.88,16a19.54,19.54,0,0,0,14.45,5.81,31.29,31.29,0,0,0,10.63-1.76c1.17-.55,2.2-1.08,3.1-1.55a8.49,8.49,0,0,0,1.64-1.15v-6.43H411.4V235.42Z" transform="translate(0 -174.04)" style="fill:#d26035"/><path d="M472.45,277.65c15.28,0,22.62-10,22.62-22.53V228.57h-15.5v27.18a7.13,7.13,0,1,1-14.25.62c0-.21,0-.41,0-.62V228.57h-15.5v26.55C449.82,267.62,457.16,277.65,472.45,277.65Z" transform="translate(0 -174.04)" style="fill:#d26035"/><path d="M518.57,277.65c5.55,0,8.89-1.22,11.1-2.74v1.62h14.15V249.27c0-9.79-6.76-20.69-22.12-20.69a21.57,21.57,0,0,0-19.57,11.3l10.7,6.87a9.74,9.74,0,0,1,8.88-5.27c5.16,0,7.58,2.64,7.58,4.35,0,1.92-1.21,2.93-3.23,2.93h-9.7c-9.29,0-15.64,5.34-15.64,13.42C500.7,270.68,507.27,277.65,518.57,277.65Zm2.53-11.51c-3.13,0-5.15-1.51-5.15-3.64a3.44,3.44,0,0,1,3.42-3.45h9.7v.61c0,3.34-3.13,6.47-8,6.47Z" transform="translate(0 -174.04)" style="fill:#d26035"/><path d="M570,277.65v-24c0-6.58,3.34-10.34,9.81-10.34h6V228.57H582c-4.91,0-9.81,1.47-12.62,5.32V229.2H554.6v48.45Z" transform="translate(0 -174.04)" style="fill:#d26035"/><path d="M624.52,228.93a27.76,27.76,0,0,0-11.76-2.76c-13.85,0-25.08,11.52-25.08,25.74s11.23,25.74,25.08,25.74a27.61,27.61,0,0,0,11.76-2.76v1.59H640V202.35H624.52ZM614,262.83a10.92,10.92,0,1,1,10.53-11v.12a10.51,10.51,0,0,1-10,10.91H614Z" transform="translate(0 -174.04)" style="fill:#d26035"/><path d="M255.54,277.65V254.19h12.69c15.82,0,25.82-12.47,25.82-26.35a25.47,25.47,0,0,0-25.45-25.49H237.25v75.3Zm0-59.48h8.39c6,0,10.76,3.55,10.76,9.67,0,6.35-4.73,10-10.76,10h-8.39Z" transform="translate(0 -174.04)" style="fill:#d26035"/><path d="M316.9,277.65v-75.3H300.63v75.3Z" transform="translate(0 -174.04)" style="fill:#d26035"/><path d="M342,277.65v-75.3H325.72v75.3Z" transform="translate(0 -174.04)" style="fill:#d26035"/><path d="M0,232.08v1.21c1.41,22.78,38.79,41,84.72,41s83.3-18.26,84.71-41v-18.2c-1.41-22.78-38.79-41-84.71-41S1.43,192.3,0,215.1Zm3-7.89c9.9,17.91,42.72,31.06,81.69,31.06s71.8-13.15,81.69-31.06c-9.89-17.93-42.71-31.08-81.69-31.08S12.9,206.28,3,224.19Z" transform="translate(0 -174.04)" style="fill:#d26035;fill-rule:evenodd"/><path d="M169.34,246.87c-2.44,22.31-39.39,40-84.61,40s-82-17.68-84.6-40L0,246.64v16.95C0,287,37.93,306,84.72,306s84.71-19,84.71-42.37V246.64Z" transform="translate(0 -174.04)" style="fill:#d26035;fill-rule:evenodd"/><path d="M140,235c-14.79-6.4-34.18-10.27-55.33-10.27S44.22,228.62,29.37,235a50.35,50.35,0,0,1-15-10.58c15.21-11.31,41.05-18.82,70.37-18.82s55.13,7.45,70.38,18.82A50.44,50.44,0,0,1,140,235Z" transform="translate(0 -174.04)" style="fill:#d26035"/></svg>