<?xml version="1.0" encoding="UTF-8"?>
<svg id="Lag_1" data-name="Lag 1" xmlns="http://www.w3.org/2000/svg" viewBox="0 0 504.7 446.8">
  <defs>
    <style>
      .cls-1 {
        fill: #d26035;
      }
    </style>
  </defs>
  <path class="cls-1" d="M460.55,217.7h-50.5v-50.5h48.8c.6,0,1.2-.1,1.7-.1v50.6Z"/>
  <path class="cls-1" d="M460.55,296.8c-.6,0-1.2-.1-1.7-.1h-48.8v-50.5h50.5v50.6Z"/>
  <path class="cls-1" d="M177.15,276.7h-63.9c-2.8,0-5-1.8-5.4-4.3-.4-2.6,.9-5.1,3.4-5.9,.9-.3,1.9-.4,2.8-.4h63v-68.3h-63.6c-3.4,0-5.7-2.3-5.6-5.5,.1-2.7,2.2-4.9,4.9-5.1h64.5V65.2c0-4.4,1.7-8.2,4.9-11.2,4-3.8,8.1-7.6,12.1-11.4,3.4-3.2,6.8-6.5,10.2-9.7,1.5-1.5,3-3,4.7-4.3,2.8-2,6-3,9.4-3,30.7,0,61.5-.1,92.2,0,9.6,0,17.3,8,17.3,17.7V187.2h62.1c4,0,6.5,3.4,5.4,7-.7,2.2-2.6,3.6-5,3.6h-62.3v68.3h61.4c1.9,0,3.7,.4,5,2,1.4,1.7,1.6,3.7,.7,5.7-1,2.1-2.7,3-5,3h-62.2v108.6c0,6.6-2.9,11.7-8.4,15.5-8.6,6.1-17.1,12.3-25.5,18.6-3.2,2.4-6.5,3.7-10.5,3.7-30.2,0-60.5-.1-90.7,0-8.5,0-15.7-6.8-15.7-15.8,.1-42.9,0-85.7,0-128.6-.2-.7-.2-1.3-.2-2.1Zm146,0h-49c-2.8,0-5-2.1-5.2-4.9-.3-3.4,2.2-5.8,5.9-5.8h48.3v-68.3h-48.8c-3.5,0-5.9-2.8-5.3-6.3,.4-2.6,2.6-4.3,5.7-4.3h48.5V42.5c-.4-6.9-6-12.3-12.9-12.3h-91.5c-3.1,0-5.9,1.1-8.3,3.1-3.4,2.9-4.6,6.8-4.6,11.2V385.9c.3,7.5,5.8,12.8,13.3,12.8,30.1,0,60.3-.1,90.4,.1,7.2,0,13.7-5.6,13.7-13.7-.1-35.5,0-71,0-106.5-.2-.7-.2-1.2-.2-1.9Z"/>
  <path class="cls-1" d="M69.35,217.7c-13.9,0-25.1-11.3-25.2-25.3,0-14.1,11.4-25.3,25.7-25.3s24.9,11.5,24.9,25.3c0,14.1-11.3,25.4-25.4,25.3Z"/>
  <path class="cls-1" d="M44.15,271.4c0-14,11.3-25.2,25.4-25.2s25.2,11.3,25.2,25.3-11.4,25.3-25.3,25.3c-14-.1-25.3-11.4-25.3-25.4Z"/>
</svg>