<?xml version="1.0" encoding="UTF-8"?>
<svg id="Lag_1" data-name="Lag 1" xmlns="http://www.w3.org/2000/svg" viewBox="0 0 128 128">
  <defs>
    <style>
      .cls-1 {
        fill: #d36135;
      }

      .cls-2 {
        fill: #d26035;
      }
    </style>
  </defs>
  <path class="cls-2" d="m127,1v126H1V1h126m1-1H0v128h128V0h0Z"/>
  <g>
    <path class="cls-1" d="m103.62,62.73h-9.61v-9.61h9.29c.11,0,.23-.02.32-.02v9.63h0Z"/>
    <path class="cls-1" d="m103.62,77.78c-.11,0-.23-.02-.32-.02h-9.29v-9.61h9.61v9.63Z"/>
    <path class="cls-1" d="m49.69,73.96h-12.16c-.53,0-.95-.34-1.03-.82-.08-.49.17-.97.65-1.12.17-.06.36-.08.53-.08h11.99v-13h-12.1c-.65,0-1.08-.44-1.07-1.05.02-.51.42-.93.93-.97h12.28v-23.22c0-.84.32-1.56.93-2.13.76-.72,1.54-1.45,2.3-2.17.65-.61,1.29-1.24,1.94-1.85.29-.29.57-.57.89-.82.53-.38,1.14-.57,1.79-.57,5.84,0,11.7-.02,17.55,0,1.83,0,3.29,1.52,3.29,3.37v27.39h11.82c.76,0,1.24.65,1.03,1.33-.13.42-.49.69-.95.69h-11.86v13h11.69c.36,0,.7.08.95.38.27.32.3.7.13,1.08-.19.4-.51.57-.95.57h-11.84v20.67c0,1.26-.55,2.23-1.6,2.95-1.64,1.16-3.25,2.34-4.85,3.54-.61.46-1.24.7-2,.7-5.75,0-11.51-.02-17.26,0-1.62,0-2.99-1.29-2.99-3.01.02-8.16,0-16.31,0-24.47-.04-.13-.04-.25-.04-.4h0Zm27.79,0h-9.33c-.53,0-.95-.4-.99-.93-.06-.65.42-1.1,1.12-1.1h9.19v-13h-9.29c-.67,0-1.12-.53-1.01-1.2.08-.49.49-.82,1.08-.82h9.23v-27.52c-.08-1.31-1.14-2.34-2.46-2.34h-17.41c-.59,0-1.12.21-1.58.59-.65.55-.88,1.29-.88,2.13v64.97c.06,1.43,1.1,2.44,2.53,2.44,5.73,0,11.48-.02,17.2.02,1.37,0,2.61-1.07,2.61-2.61-.02-6.76,0-13.51,0-20.27-.04-.13-.04-.23-.04-.36h0Z"/>
    <path class="cls-1" d="m29.17,62.73c-2.65,0-4.78-2.15-4.8-4.81,0-2.68,2.17-4.81,4.89-4.81s4.74,2.19,4.74,4.81-2.15,4.83-4.83,4.81Z"/>
    <path class="cls-1" d="m24.38,72.95c0-2.66,2.15-4.8,4.83-4.8s4.8,2.15,4.8,4.81-2.17,4.81-4.81,4.81c-2.66-.02-4.81-2.17-4.81-4.83Z"/>
  </g>
</svg>